<svg width="63" height="44" viewBox="0 0 63 44" fill="none" xmlns="http://www.w3.org/2000/svg">
<rect x="5" y="15" width="2.5" height="12.5" transform="rotate(-180 5 15)" fill="#C4C4C4"/>
<rect x="10" y="3.75" width="2.5" height="7.5" transform="rotate(-90 10 3.75)" fill="#C4C4C4"/>
<rect x="10" y="8.75" width="2.5" height="10" transform="rotate(-90 10 8.75)" fill="#C4C4C4"/>
<rect x="10" y="13.75" width="2.5" height="15" transform="rotate(-90 10 13.75)" fill="#C4C4C4"/>
<path d="M3.75 6.55671e-07L6.99759 4.6875L0.502404 4.6875L3.75 6.55671e-07Z" fill="#C4C4C4"/>
<rect x="5" y="44" width="2.5" height="12.5" transform="rotate(-180 5 44)" fill="black"/>
<rect x="10" y="32.75" width="2.5" height="7.5" transform="rotate(-90 10 32.75)" fill="black"/>
<rect x="10" y="37.75" width="2.5" height="10" transform="rotate(-90 10 37.75)" fill="black"/>
<rect x="10" y="42.75" width="2.5" height="15" transform="rotate(-90 10 42.75)" fill="black"/>
<path d="M3.75 29L6.99759 33.6875L0.502404 33.6875L3.75 29Z" fill="black"/>
<rect x="40.5" y="29" width="2.5" height="12.5" fill="black"/>
<rect x="48" y="32.75" width="2.5" height="7.5" transform="rotate(-90 48 32.75)" fill="black"/>
<rect x="48" y="37.75" width="2.5" height="10" transform="rotate(-90 48 37.75)" fill="black"/>
<rect x="48" y="42.75" width="2.5" height="15" transform="rotate(-90 48 42.75)" fill="black"/>
<path d="M41.75 44L38.5024 39.3125L44.9976 39.3125L41.75 44Z" fill="black"/>
<rect x="40.5" width="2.5" height="12.5" fill="#C4C4C4"/>
<rect x="48" y="3.75" width="2.5" height="7.5" transform="rotate(-90 48 3.75)" fill="#C4C4C4"/>
<rect x="48" y="8.75" width="2.5" height="10" transform="rotate(-90 48 8.75)" fill="#C4C4C4"/>
<rect x="48" y="13.75" width="2.5" height="15" transform="rotate(-90 48 13.75)" fill="#C4C4C4"/>
<path d="M41.75 15L38.5024 10.3125L44.9976 10.3125L41.75 15Z" fill="#C4C4C4"/>
</svg>
